<svg xmlns="http://www.w3.org/2000/svg" xmlns:xlink="http://www.w3.org/1999/xlink" xmlns:lucid="lucid" width="2639.83" height="457.74"><g transform="translate(192.9999999999891 -79)" lucid:page-tab-id="0_0"><path d="M-500 0h3000v1000H-500z" fill="#fff"/><path d="M1100 100c0 11.05-26.86 20-60 20s-60-8.95-60-20 26.86-20 60-20 60 8.95 60 20z" stroke="#000" stroke-width="2" fill="#dfe3e8"/><use xlink:href="#a" transform="matrix(1,0,0,1,985,85) translate(19.718541666666667 23.40277777777778)"/><path d="M186 247c0 10.4-23.73 18.83-53 18.83S80 257.4 80 247c0-10.4 23.73-18.83 53-18.83s53 8.43 53 18.83z" stroke="#000" stroke-width="2" fill="#dedeff"/><use xlink:href="#b" transform="matrix(1,0,0,1,85,233.16666666666663) translate(14.411249999999997 21.52777777777778)"/><path d="M1236.17 241.75c0 13.3-24.7 24.08-55.17 24.08-30.47 0-55.17-10.78-55.17-24.08 0-13.3 24.7-24.08 55.17-24.08 30.47 0 55.17 10.78 55.17 24.08z" stroke="#000" stroke-width="2" fill="#dedeff"/><use xlink:href="#c" transform="matrix(1,0,0,1,1130.8333333333335,222.66666666666663) translate(5.864374999999997 26.40277777777778)"/><path d="M133 226.67v-46.6a6 6 0 0 1 6-6h895a6 6 0 0 0 6-6V121.5" stroke="#3a414a" fill="none"/><path d="M133.47 227.2l-.46-.03h-.47v-.52h.94zM1040 121l.47-.02v.53h-.94V121z" stroke="#3a414a" stroke-width=".05" fill="#3a414a"/><path d="M20 387c0 10.4-23.73 18.83-53 18.83S-86 397.4-86 387c0-10.4 23.73-18.83 53-18.83S20 376.6 20 387z" stroke="#000" stroke-width="2" fill="#cfe4ff"/><use xlink:href="#d" transform="matrix(1,0,0,1,-80.99999999998886,373.16666666666663) translate(20.276050347222228 23.27777777777778)"/><path d="M-86 497.87c0 19.1-23.73 34.58-53 34.58s-53-15.48-53-34.58c0-19.1 23.73-34.57 53-34.57s53 15.47 53 34.57z" stroke="#000" stroke-width="2" fill="#e3fae3"/><use xlink:href="#e" transform="matrix(1,0,0,1,-186.9999999999891,468.29492187499994) translate(21.84397569444445 21.52777777777778)"/><use xlink:href="#f" transform="matrix(1,0,0,1,-186.9999999999891,468.29492187499994) translate(20.883689236111113 53.79340277777778)"/><path d="M140 497.87c0 20.92-32.68 37.87-73 37.87S-6 518.8-6 497.87C-6 476.97 26.68 460 67 460s73 16.96 73 37.87z" stroke="#000" stroke-width="2" fill="#e3fae3"/><use xlink:href="#g" transform="matrix(1,0,0,1,-0.9999999999888587,465) translate(22.514756944444443 24.95095486111111)"/><use xlink:href="#h" transform="matrix(1,0,0,1,-0.9999999999888587,465) translate(23.361111111111107 57.21657986111111)"/><path d="M-33 366.67V323a6 6 0 0 1 6-6h154a6 6 0 0 0 6-6v-43.67" stroke="#3a414a" fill="none"/><path d="M-32.52 367.2l-.47-.03h-.48v-.52h.95zM133 266.83h.47v.52h-.94v-.54z" stroke="#3a414a" stroke-width=".05" fill="#3a414a"/><path d="M-87.4 388.14H-133a6 6 0 0 0-6 6v67.65" stroke="#3a414a" fill="none"/><path d="M-86.9 388.22l.08.4h-.6v-.95h.45zM-138.53 462.32l-.46-.03h-.47v-.52h.94z" stroke="#3a414a" stroke-width=".05" fill="#3a414a"/><path d="M21.5 387H61a6 6 0 0 1 6 6v65.5" stroke="#3a414a" fill="none"/><path d="M21.5 387.48H21L21 387v-.48h.5zM67.47 459.02L67 459h-.47v-.5h.94z" stroke="#3a414a" stroke-width=".05" fill="#3a414a"/><path d="M446 387c0 10.4-23.73 18.83-53 18.83s-53-8.43-53-18.83c0-10.4 23.73-18.83 53-18.83s53 8.43 53 18.83z" stroke="#000" stroke-width="2" fill="#cfe4ff"/><use xlink:href="#d" transform="matrix(1,0,0,1,345.0000000000001,373.16666666666663) translate(20.276050347222228 23.27777777777778)"/><path d="M340 497.87c0 19.1-26.86 34.58-60 34.58s-60-15.48-60-34.58c0-19.1 26.86-34.57 60-34.57s60 15.47 60 34.57z" stroke="#000" stroke-width="2" fill="#e3fae3"/><use xlink:href="#e" transform="matrix(1,0,0,1,225.0000000000001,468.29492187499994) translate(28.838975694444446 21.95095486111111)"/><use xlink:href="#i" transform="matrix(1,0,0,1,225.0000000000001,468.29492187499994) translate(16.01345486111112 54.21657986111111)"/><path d="M566 497.87c0 20.92-32.68 37.87-73 37.87s-73-16.95-73-37.87c0-20.9 32.68-37.87 73-37.87s73 16.96 73 37.87z" stroke="#000" stroke-width="2" fill="#e3fae3"/><use xlink:href="#g" transform="matrix(1,0,0,1,425,465) translate(22.019756944444442 25.537777777777777)"/><use xlink:href="#j" transform="matrix(1,0,0,1,425,465) translate(39.61415798611111 57.80340277777778)"/><path d="M338.6 388.14H286a6 6 0 0 0-6 6v67.65" stroke="#3a414a" fill="none"/><path d="M339.1 388.22l.08.4h-.6v-.95h.45zM280.48 462.3h-.96v-.52h.96z" stroke="#3a414a" stroke-width=".05" fill="#3a414a"/><path d="M447.5 387H487a6 6 0 0 1 6 6v65.5" stroke="#3a414a" fill="none"/><path d="M447.5 387.48H447l.02-.47v-.48h.5zM493.48 459.02L493 459h-.48v-.5h.96z" stroke="#3a414a" stroke-width=".05" fill="#3a414a"/><path d="M133 267.33V311a6 6 0 0 0 6 6h248a6 6 0 0 1 6 6v43.67" stroke="#3a414a" fill="none"/><path d="M133 266.83h.47v.52h-.94v-.54zM393.48 367.2l-.47-.03h-.48v-.52h.96z" stroke="#3a414a" stroke-width=".05" fill="#3a414a"/><path d="M1300 223.67a6 6 0 0 1 6-6h153a6 6 0 0 1 6 6v36.16a6 6 0 0 1-6 6h-153a6 6 0 0 1-6-6z" stroke="#000" stroke-width="2" fill="#ffdda6"/><use xlink:href="#k" transform="matrix(1,0,0,1,1312,229.66666666666663) translate(-1.716796875 21.52777777777778)"/><path d="M1237.67 241.75h60.83" stroke="#3a414a" fill="none"/><path d="M1237.68 242.22h-.53l.02-.46v-.38l-.02-.1h.53zM1299 242.22h-.5v-.94h.5z" stroke="#3a414a" stroke-width=".05" fill="#3a414a"/><path d="M977.83 378.58c0 13.3-24.7 24.1-55.16 24.1-30.47 0-55.17-10.8-55.17-24.1s24.7-24.08 55.17-24.08c30.46 0 55.16 10.78 55.16 24.08z" stroke="#000" stroke-width="2" fill="#cfe4ff"/><use xlink:href="#l" transform="matrix(1,0,0,1,872.5000000000002,359.4999999999999) translate(11.729175347222219 26.40277777777778)"/><path d="M905.83 483.83c0 26.85-32.64 48.62-72.9 48.62-40.28 0-72.93-21.77-72.93-48.62 0-26.86 32.65-48.63 72.92-48.63s72.9 21.77 72.9 48.63z" stroke="#000" stroke-width="2" fill="#e3fae3"/><use xlink:href="#e" transform="matrix(1,0,0,1,765,440.2050781249999) translate(41.843975694444445 35.27777777777778)"/><use xlink:href="#m" transform="matrix(1,0,0,1,765,440.2050781249999) translate(20.440980902777774 67.54340277777777)"/><path d="M1125.83 480.9c0 25.23-41.6 45.68-92.9 45.68-51.33 0-92.93-20.45-92.93-45.7 0-25.22 41.6-45.68 92.92-45.68 51.3 0 92.9 20.46 92.9 45.7z" stroke="#000" stroke-width="2" fill="#e3fae3"/><use xlink:href="#n" transform="matrix(1,0,0,1,945,440.2050781249999) translate(18.489157986111106 31.77777777777778)"/><use xlink:href="#o" transform="matrix(1,0,0,1,945,440.2050781249999) translate(116.70964409722222 31.77777777777778)"/><use xlink:href="#p" transform="matrix(1,0,0,1,945,440.2050781249999) translate(49.94618923611111 64.04340277777777)"/><path d="M979.33 378.58h47.6a6 6 0 0 1 6 6v49.13" stroke="#3a414a" fill="none"/><path d="M979.35 379.06h-.54l.03-.46v-.48h.52zM1033.4 434.22l-.47-.02h-.5v-.5h.96z" stroke="#3a414a" stroke-width=".05" fill="#3a414a"/><path d="M832.92 433.7v-49.12a6 6 0 0 1 6-6H866" stroke="#3a414a" fill="none"/><path d="M833.4 434.22l-.48-.02-.48.02v-.53h.95zM866.5 378.57v.48h-.5v-.94h.52z" stroke="#3a414a" stroke-width=".05" fill="#3a414a"/><path d="M1417.83 378.58c0 13.3-24.7 24.1-55.16 24.1-30.47 0-55.17-10.8-55.17-24.1s24.7-24.08 55.17-24.08c30.46 0 55.16 10.78 55.16 24.08z" stroke="#000" stroke-width="2" fill="#cfe4ff"/><use xlink:href="#l" transform="matrix(1,0,0,1,1312.5000000000002,359.4999999999999) translate(11.729175347222219 26.40277777777778)"/><path d="M1345.83 483.83c0 22.1-32.64 40-72.9 40-40.28 0-72.93-17.9-72.93-40s32.65-40 72.92-40 72.9 17.9 72.9 40z" stroke="#000" stroke-width="2" fill="#e3fae3"/><use xlink:href="#e" transform="matrix(1,0,0,1,1205,448.82682291666663) translate(41.84397569444445 25.90277777777778)"/><use xlink:href="#q" transform="matrix(1,0,0,1,1205,448.82682291666663) translate(31.373055555555556 58.16840277777778)"/><path d="M1565.83 480.9c0 22.1-41.6 40-92.9 40-51.33 0-92.93-17.9-92.93-40s41.6-40 92.92-40c51.3 0 92.9 17.9 92.9 40z" stroke="#000" stroke-width="2" fill="#e3fae3"/><use xlink:href="#n" transform="matrix(1,0,0,1,1385,445.8942057291665) translate(5.952048611111104 43.40277777777778)"/><use xlink:href="#r" transform="matrix(1,0,0,1,1385,445.8942057291665) translate(104.17253472222222 43.40277777777778)"/><path d="M1419.33 378.58h47.6a6 6 0 0 1 6 6v54.8" stroke="#3a414a" fill="none"/><path d="M1419.35 379.06h-.54l.03-.46v-.48h.52zM1473.4 439.9h-.97v-.52h.96z" stroke="#3a414a" stroke-width=".05" fill="#3a414a"/><path d="M1272.92 442.33v-57.75a6 6 0 0 1 6-6H1306" stroke="#3a414a" fill="none"/><path d="M1273.4 442.84h-.96v-.53h.95zM1306.5 378.57v.48h-.5v-.94h.52z" stroke="#3a414a" stroke-width=".05" fill="#3a414a"/><path d="M922.67 353v-36.83a6 6 0 0 1 6-6H1175a6 6 0 0 0 6-6v-36.84" stroke="#3a414a" fill="none"/><path d="M923.14 353.52l-.46-.02h-.5v-.5h.96zM1180.98 266.83h.5v.52h-.95v-.54z" stroke="#3a414a" stroke-width=".05" fill="#3a414a"/><path d="M1362.67 353v-36.83a6 6 0 0 0-6-6H1187a6 6 0 0 1-6-6v-36.84" stroke="#3a414a" fill="none"/><path d="M1363.14 353.52l-.46-.02h-.5v-.5h.96zM1180.98 266.83h.5v.52h-.95v-.54z" stroke="#3a414a" stroke-width=".05" fill="#3a414a"/><path d="M2116.17 241.75c0 13.3-24.7 24.08-55.17 24.08-30.47 0-55.17-10.78-55.17-24.08 0-13.3 24.7-24.08 55.17-24.08 30.47 0 55.17 10.78 55.17 24.08z" stroke="#000" stroke-width="2" fill="#dedeff"/><use xlink:href="#c" transform="matrix(1,0,0,1,2010.8333333333335,222.66666666666663) translate(5.864374999999997 26.40277777777778)"/><path d="M2200 223.67a6 6 0 0 1 6-6h153a6 6 0 0 1 6 6v36.16a6 6 0 0 1-6 6h-153a6 6 0 0 1-6-6z" stroke="#000" stroke-width="2" fill="#ffdda6"/><use xlink:href="#s" transform="matrix(1,0,0,1,2212,229.66666666666663) translate(-1.4509548611111143 21.52777777777778)"/><path d="M2117.67 241.75h80.83" stroke="#3a414a" fill="none"/><path d="M2117.68 242.22h-.53l.02-.46v-.38l-.02-.1h.53zM2199 242.22h-.5v-.94h.5z" stroke="#3a414a" stroke-width=".05" fill="#3a414a"/><path d="M1857.83 378.58c0 13.3-24.7 24.1-55.16 24.1-30.47 0-55.17-10.8-55.17-24.1s24.7-24.08 55.17-24.08c30.46 0 55.16 10.78 55.16 24.08z" stroke="#000" stroke-width="2" fill="#cfe4ff"/><use xlink:href="#l" transform="matrix(1,0,0,1,1752.5000000000002,359.4999999999997) translate(11.729175347222219 26.40277777777778)"/><path d="M1785.83 483.83c0 22.1-32.64 40-72.9 40-40.28 0-72.93-17.9-72.93-40s32.65-40 72.92-40 72.9 17.9 72.9 40z" stroke="#000" stroke-width="2" fill="#e3fae3"/><use xlink:href="#t" transform="matrix(1,0,0,1,1645,448.8268229166665) translate(5.190755208333343 43.40277777777778)"/><use xlink:href="#u" transform="matrix(1,0,0,1,1645,448.8268229166665) translate(63.76280381944445 43.40277777777778)"/><path d="M2005.83 480.9c0 22.1-41.6 40-92.9 40-51.33 0-92.93-17.9-92.93-40s41.6-40 92.92-40c51.3 0 92.9 17.9 92.9 40z" stroke="#000" stroke-width="2" fill="#e3fae3"/><use xlink:href="#n" transform="matrix(1,0,0,1,1825,445.8942057291665) translate(5.36068576388889 43.40277777777778)"/><use xlink:href="#v" transform="matrix(1,0,0,1,1825,445.8942057291665) translate(103.58117187500001 43.40277777777778)"/><path d="M1859.33 378.58h47.6a6 6 0 0 1 6 6v54.8" stroke="#3a414a" fill="none"/><path d="M1859.35 379.06h-.54l.03-.46v-.48h.52zM1913.4 439.9h-.97v-.52h.96z" stroke="#3a414a" stroke-width=".05" fill="#3a414a"/><path d="M1712.92 442.33v-57.75a6 6 0 0 1 6-6H1746" stroke="#3a414a" fill="none"/><path d="M1713.4 442.84h-.96v-.53h.95zM1746.5 378.57v.48h-.5v-.94h.52z" stroke="#3a414a" stroke-width=".05" fill="#3a414a"/><path d="M2297.83 378.58c0 13.3-24.7 24.1-55.16 24.1-30.47 0-55.17-10.8-55.17-24.1s24.7-24.08 55.17-24.08c30.46 0 55.16 10.78 55.16 24.08z" stroke="#000" stroke-width="2" fill="#cfe4ff"/><use xlink:href="#l" transform="matrix(1,0,0,1,2192.5000000000005,359.4999999999997) translate(11.729175347222219 26.40277777777778)"/><path d="M2225.83 483.83c0 22.1-32.64 40-72.9 40-40.28 0-72.93-17.9-72.93-40s32.65-40 72.92-40 72.9 17.9 72.9 40z" stroke="#000" stroke-width="2" fill="#e3fae3"/><use xlink:href="#t" transform="matrix(1,0,0,1,2085,448.8268229166665) translate(9.314019097222229 43.40277777777778)"/><use xlink:href="#w" transform="matrix(1,0,0,1,2085,448.8268229166665) translate(67.88606770833334 43.40277777777778)"/><path d="M2445.83 480.9c0 22.1-41.6 40-92.9 40-51.33 0-92.93-17.9-92.93-40s41.6-40 92.92-40c51.3 0 92.9 17.9 92.9 40z" stroke="#000" stroke-width="2" fill="#e3fae3"/><use xlink:href="#g" transform="matrix(1,0,0,1,2265,445.8942057291665) translate(42.01975694444444 25.90277777777778)"/><use xlink:href="#x" transform="matrix(1,0,0,1,2265,445.8942057291665) translate(44.43403645833334 58.16840277777778)"/><path d="M2299.33 378.58h47.6a6 6 0 0 1 6 6v54.8" stroke="#3a414a" fill="none"/><path d="M2299.35 379.06h-.54l.03-.46v-.48h.52zM2353.4 439.9h-.97v-.52h.96z" stroke="#3a414a" stroke-width=".05" fill="#3a414a"/><path d="M2152.92 442.33v-57.75a6 6 0 0 1 6-6H2186" stroke="#3a414a" fill="none"/><path d="M2153.4 442.84h-.96v-.53h.95zM2186.5 378.57v.48h-.5v-.94h.52z" stroke="#3a414a" stroke-width=".05" fill="#3a414a"/><path d="M1802.67 353v-36.83a6 6 0 0 1 6-6H2055a6 6 0 0 0 6-6v-36.84" stroke="#3a414a" fill="none"/><path d="M1803.14 353.52l-.46-.02h-.5v-.5h.96zM2061 266.83h.47v.52h-.94v-.54z" stroke="#3a414a" stroke-width=".05" fill="#3a414a"/><path d="M2242.67 353v-36.83a6 6 0 0 0-6-6H2067a6 6 0 0 1-6-6v-36.84" stroke="#3a414a" fill="none"/><path d="M2243.14 353.52l-.46-.02h-.5v-.5h.96zM2061 266.83h.47v.52h-.94v-.54z" stroke="#3a414a" stroke-width=".05" fill="#3a414a"/><path d="M1040 121.5v46.58a6 6 0 0 0 6 6h129a6 6 0 0 1 6 6v36.1" stroke="#3a414a" fill="none"/><path d="M1040 121l.47-.02v.53h-.94V121zM1181.47 216.7l-.45-.03h-.5v-.52h.95z" stroke="#3a414a" stroke-width=".05" fill="#3a414a"/><path d="M1040 121.5v46.58a6 6 0 0 0 6 6h1009a6 6 0 0 1 6 6v36.1" stroke="#3a414a" fill="none"/><path d="M1040 121l.47-.02v.53h-.94V121zM2061.47 216.7l-.45-.03h-.5v-.52h.95z" stroke="#3a414a" stroke-width=".05" fill="#3a414a"/><defs><path d="M158 0v-1118h180V0H158zm91-1301c-68 0-125-53-125-119s57-119 125-119c69 0 126 53 126 119s-57 119-126 119" id="y"/><path d="M338-670V0H158v-1118h173l1 207c72-158 192-221 342-221 226 0 378 139 378 422V0H872v-695c0-172-96-275-252-275-161 0-282 109-282 300" id="z"/><path d="M538 24C308 24 148-78 108-271l171-41c32 123 123 178 257 178 156 0 256-77 256-169 0-77-54-128-164-154l-186-44c-203-48-300-148-300-305 0-192 176-326 414-326 230 0 351 112 402 269l-163 42c-31-80-94-158-238-158-133 0-233 69-233 162 0 83 57 129 188 160l169 40c203 48 298 149 298 302 0 196-179 339-441 339" id="A"/><path d="M598-1118v154H368v674c0 100 37 144 132 144 23 0 62-6 92-12L629-6c-37 13-88 20-134 20-193 0-307-107-307-290v-688H20v-154h168v-266h180v266h230" id="B"/><path d="M537 14c-226 0-379-139-379-422v-710h180v695c0 172 97 275 253 275 160 0 281-109 281-300v-670h181V0H879v-209C806-46 684 14 537 14" id="C"/><g id="a"><use transform="matrix(0.010850694444444444,0,0,0.010850694444444444,0,0)" xlink:href="#y"/><use transform="matrix(0.010850694444444444,0,0,0.010850694444444444,5.381944444444445,0)" xlink:href="#z"/><use transform="matrix(0.010850694444444444,0,0,0.010850694444444444,18.51128472222222,0)" xlink:href="#A"/><use transform="matrix(0.010850694444444444,0,0,0.010850694444444444,30.240885416666664,0)" xlink:href="#B"/><use transform="matrix(0.010850694444444444,0,0,0.010850694444444444,37.51085069444444,0)" xlink:href="#y"/><use transform="matrix(0.010850694444444444,0,0,0.010850694444444444,42.892795138888886,0)" xlink:href="#B"/><use transform="matrix(0.010850694444444444,0,0,0.010850694444444444,50.162760416666664,0)" xlink:href="#C"/><use transform="matrix(0.010850694444444444,0,0,0.010850694444444444,63.302951388888886,0)" xlink:href="#B"/></g><path d="M158 418v-1536h174v179h20c37-59 106-193 324-193 279 0 474 222 474 576 0 356-194 580-473 580-213 0-288-135-325-197h-14v591H158zm492-555c209 0 317-186 317-421 0-232-105-413-317-413-206 0-314 166-314 413 0 249 111 421 314 421" id="D"/><path d="M158 0v-1118h174v172h12c41-113 157-188 290-188 26 0 70 2 91 3v181c-11-2-60-10-108-10-161 0-279 109-279 260V0H158" id="E"/><path d="M613 24c-304 0-509-231-509-576 0-350 205-580 509-580 305 0 511 230 511 580 0 345-206 576-511 576zm0-161c226 0 329-195 329-415 0-222-103-419-329-419-223 0-326 196-326 419 0 220 103 415 326 415" id="F"/><path d="M678-1118v154H420V0H240v-964H20v-154h220v-149c0-194 155-293 318-293 85 0 141 18 168 30l-50 154c-19-6-47-17-97-17-111 0-159 58-159 166v109h258" id="G"/><path d="M628 24c-324 0-524-230-524-574 0-343 198-582 503-582 237 0 487 146 487 559v75H286c9 234 145 362 343 362 132 0 231-58 273-172l174 48C1024-91 857 24 628 24zM287-650h624c-17-190-120-322-304-322-192 0-309 151-320 322" id="H"/><g id="b"><use transform="matrix(0.010850694444444444,0,0,0.010850694444444444,0,0)" xlink:href="#D"/><use transform="matrix(0.010850694444444444,0,0,0.010850694444444444,13.606770833333332,0)" xlink:href="#E"/><use transform="matrix(0.010850694444444444,0,0,0.010850694444444444,21.603732638888886,0)" xlink:href="#F"/><use transform="matrix(0.010850694444444444,0,0,0.010850694444444444,34.928385416666664,0)" xlink:href="#G"/><use transform="matrix(0.010850694444444444,0,0,0.010850694444444444,42.502170138888886,0)" xlink:href="#H"/><use transform="matrix(0.010850694444444444,0,0,0.010850694444444444,55.45789930555556,0)" xlink:href="#A"/></g><path d="M471 26C259 26 90-98 90-318c0-256 228-303 435-329 202-27 287-16 287-108 0-139-79-219-234-219-161 0-248 86-283 164l-173-57c86-203 278-265 451-265 150 0 419 46 419 395V0H815v-152h-12C765-73 660 26 471 26zm31-159c199 0 310-134 310-271v-155c-30 35-226 55-295 64-131 17-246 59-246 186 0 116 97 176 231 176" id="I"/><path d="M338-1490V0H158v-1490h180" id="J"/><path d="M158 0v-1118h175l1 205c55-151 181-225 313-225 147 0 245 90 285 228 53-141 190-228 352-228 194 0 352 125 352 384V0h-181v-749c0-161-105-225-225-225-151 0-243 103-243 244V0H807v-767c0-124-93-207-219-207-131 0-250 92-250 270V0H158" id="K"/><g id="c"><use transform="matrix(0.010850694444444444,0,0,0.010850694444444444,0,0)" xlink:href="#I"/><use transform="matrix(0.010850694444444444,0,0,0.010850694444444444,12.47829861111111,0)" xlink:href="#J"/><use transform="matrix(0.010850694444444444,0,0,0.010850694444444444,17.860243055555557,0)" xlink:href="#C"/><use transform="matrix(0.010850694444444444,0,0,0.010850694444444444,31.000434027777775,0)" xlink:href="#K"/><use transform="matrix(0.010850694444444444,0,0,0.010850694444444444,50.46657986111112,0)" xlink:href="#z"/><use transform="matrix(0.010850694444444444,0,0,0.010850694444444444,63.5959201388889,0)" xlink:href="#H"/><use transform="matrix(0.010850694444444444,0,0,0.010850694444444444,76.55164930555556,0)" xlink:href="#A"/></g><g id="d"><use transform="matrix(0.010850694444444444,0,0,0.010850694444444444,0,0)" xlink:href="#D"/><use transform="matrix(0.010850694444444444,0,0,0.010850694444444444,13.606770833333332,0)" xlink:href="#E"/><use transform="matrix(0.010850694444444444,0,0,0.010850694444444444,21.603732638888886,0)" xlink:href="#F"/><use transform="matrix(0.010850694444444444,0,0,0.010850694444444444,34.928385416666664,0)" xlink:href="#G"/><use transform="matrix(0.010850694444444444,0,0,0.010850694444444444,42.502170138888886,0)" xlink:href="#H"/></g><path d="M295 13c-75 0-135-60-135-135s60-135 135-135 135 60 135 135S370 13 295 13zm0-809c-75 0-135-60-135-135s60-135 135-135 135 60 135 135-60 135-135 135" id="L"/><g id="e"><use transform="matrix(0.010850694444444444,0,0,0.010850694444444444,0,0)" xlink:href="#z"/><use transform="matrix(0.010850694444444444,0,0,0.010850694444444444,13.129340277777777,0)" xlink:href="#F"/><use transform="matrix(0.010850694444444444,0,0,0.010850694444444444,26.453993055555554,0)" xlink:href="#K"/><use transform="matrix(0.010850694444444444,0,0,0.010850694444444444,45.920138888888886,0)" xlink:href="#L"/></g><path d="M783 20c-382 0-661-292-661-764 0-473 279-766 661-766 302 0 548 182 601 489h-190c-42-204-217-313-411-313-268 0-476 208-476 590 0 381 209 588 476 588 195 0 369-110 411-313h190c-52 303-296 489-601 489" id="M"/><path d="M338-670V0H158v-1490h180v566c73-149 190-208 336-208 226 0 379 139 379 422V0H872v-695c0-172-96-275-252-275-161 0-282 109-282 300" id="N"/><g id="f"><use transform="matrix(0.010850694444444444,0,0,0.010850694444444444,0,0)" xlink:href="#M"/><use transform="matrix(0.010850694444444444,0,0,0.010850694444444444,16.23263888888889,0)" xlink:href="#N"/><use transform="matrix(0.010850694444444444,0,0,0.010850694444444444,29.37282986111111,0)" xlink:href="#C"/><use transform="matrix(0.010850694444444444,0,0,0.010850694444444444,42.51302083333333,0)" xlink:href="#A"/></g><path d="M613 24c-304 0-509-231-509-576 0-350 205-580 509-580 216 0 392 114 453 309l-173 49c-33-115-133-197-280-197-223 0-326 196-326 419 0 220 103 415 326 415 150 0 252-85 285-206l172 49C1010-95 832 24 613 24" id="O"/><path d="M611 442c-248 0-391-105-460-228l146-94c47 65 117 165 314 165 178 0 307-82 307-266v-224h-17C863-141 792-18 576-18c-268 0-472-195-472-546 0-346 197-568 476-568 216 0 288 133 326 193h17v-179h175V29c0 289-215 413-487 413zm-5-620c203 0 314-146 314-390 0-237-108-403-314-403-213 0-319 180-319 403 0 230 109 390 319 390" id="P"/><g id="g"><use transform="matrix(0.010850694444444444,0,0,0.010850694444444444,0,0)" xlink:href="#O"/><use transform="matrix(0.010850694444444444,0,0,0.010850694444444444,12.6953125,0)" xlink:href="#F"/><use transform="matrix(0.010850694444444444,0,0,0.010850694444444444,26.01996527777778,0)" xlink:href="#P"/><use transform="matrix(0.010850694444444444,0,0,0.010850694444444444,39.6484375,0)" xlink:href="#z"/><use transform="matrix(0.010850694444444444,0,0,0.010850694444444444,52.77777777777778,0)" xlink:href="#F"/><use transform="matrix(0.010850694444444444,0,0,0.010850694444444444,66.10243055555556,0)" xlink:href="#K"/><use transform="matrix(0.010850694444444444,0,0,0.010850694444444444,85.56857638888889,0)" xlink:href="#L"/></g><path d="M600 0L52-1490h200c166 485 304 806 458 1336 156-533 285-846 449-1336h202L819 0H600" id="Q"/><path d="M471 26C259 26 90-98 90-318c0-256 228-303 435-329 202-27 287-16 287-108 0-139-79-219-234-219-161 0-248 86-283 164l-173-57c86-203 278-265 451-265 150 0 419 46 419 395V0H815v-152h-12C765-73 660 26 471 26zm31-159c199 0 310-134 310-271v-155c-30 35-226 55-295 64-131 17-246 59-246 186 0 116 97 176 231 176zm-23-1131l140-294h201l-194 294H479" id="R"/><path d="M126 0v-134l627-806v-11H146v-167h839v143L376-178v11h629V0H126" id="S"/><path d="M1096 418H916v-591h-14C865-111 790 24 577 24c-279 0-473-224-473-580 0-354 195-576 474-576 218 0 287 134 324 193h20v-179h174V418zM604-137c203 0 314-172 314-421 0-247-108-413-314-413-212 0-317 181-317 413 0 235 108 421 317 421" id="T"/><g id="h"><use transform="matrix(0.010850694444444444,0,0,0.010850694444444444,0,0)" xlink:href="#Q"/><use transform="matrix(0.010850694444444444,0,0,0.010850694444444444,14.20355902777778,0)" xlink:href="#R"/><use transform="matrix(0.010850694444444444,0,0,0.010850694444444444,26.68185763888889,0)" xlink:href="#S"/><use transform="matrix(0.010850694444444444,0,0,0.010850694444444444,38.62847222222222,0)" xlink:href="#T"/><use transform="matrix(0.010850694444444444,0,0,0.010850694444444444,52.23524305555556,0)" xlink:href="#C"/><use transform="matrix(0.010850694444444444,0,0,0.010850694444444444,65.37543402777777,0)" xlink:href="#H"/><use transform="matrix(0.010850694444444444,0,0,0.010850694444444444,78.00564236111111,0)" xlink:href="#S"/></g><path d="M180 0v-1490h510c348 0 508 194 508 460 0 198-88 351-276 417L1256 0h-220L726-579c-117 2-238 0-356 1V0H180zm190-747h312c235 0 327-108 327-283 0-177-92-293-329-293H370v576" id="U"/><g id="i"><use transform="matrix(0.010850694444444444,0,0,0.010850694444444444,0,0)" xlink:href="#U"/><use transform="matrix(0.010850694444444444,0,0,0.010850694444444444,14.192708333333332,0)" xlink:href="#I"/><use transform="matrix(0.010850694444444444,0,0,0.010850694444444444,26.671006944444443,0)" xlink:href="#y"/><use transform="matrix(0.010850694444444444,0,0,0.010850694444444444,32.052951388888886,0)" xlink:href="#K"/><use transform="matrix(0.010850694444444444,0,0,0.010850694444444444,51.51909722222221,0)" xlink:href="#F"/><use transform="matrix(0.010850694444444444,0,0,0.010850694444444444,64.84374999999999,0)" xlink:href="#z"/></g><path d="M180 0v-1490h901v168H370v510h643v168H370V0H180" id="V"/><g id="j"><use transform="matrix(0.010850694444444444,0,0,0.010850694444444444,0,0)" xlink:href="#V"/><use transform="matrix(0.010850694444444444,0,0,0.010850694444444444,12.239583333333332,0)" xlink:href="#F"/><use transform="matrix(0.010850694444444444,0,0,0.010850694444444444,25.564236111111104,0)" xlink:href="#J"/><use transform="matrix(0.010850694444444444,0,0,0.010850694444444444,30.94618055555555,0)" xlink:href="#O"/><use transform="matrix(0.010850694444444444,0,0,0.010850694444444444,43.64149305555555,0)" xlink:href="#N"/></g><path d="M226-283v-166h904v166H226zm0-434v-166h904v166H226" id="W"/><path d="M232-923l-22-567h194l-22 567H232zm340 0l-22-567h194l-22 567H572" id="X"/><path d="M653-1490V0H466v-1314h-10L96-1047v-204l324-239h233" id="Y"/><path d="M645 0H180v-1490h484c435 0 692 280 692 742 0 466-257 748-711 748zM370-168h263c363 0 539-218 539-580 0-358-176-574-521-574H370v1154" id="Z"/><path d="M52 0l541-1490h220L1361 0h-200l-149-416H398L254 0H52zm404-582h497c-103-290-145-390-251-756-108 377-145 460-246 756" id="aa"/><path d="M458 0L52-1490h194c108 439 233 855 324 1313 92-459 221-873 331-1313h216c110 438 234 854 330 1307 92-455 216-869 323-1307h196L1558 0h-221l-256-944c-26-95-50-200-73-331-22 122-44 223-73 331L680 0H458" id="ab"/><g id="k"><use transform="matrix(0.010850694444444444,0,0,0.010850694444444444,0,0)" xlink:href="#P"/><use transform="matrix(0.010850694444444444,0,0,0.010850694444444444,13.628472222222221,0)" xlink:href="#E"/><use transform="matrix(0.010850694444444444,0,0,0.010850694444444444,21.994357638888886,0)" xlink:href="#C"/><use transform="matrix(0.010850694444444444,0,0,0.010850694444444444,35.13454861111111,0)" xlink:href="#D"/><use transform="matrix(0.010850694444444444,0,0,0.010850694444444444,48.74131944444444,0)" xlink:href="#W"/><use transform="matrix(0.010850694444444444,0,0,0.010850694444444444,63.444010416666664,0)" xlink:href="#X"/><use transform="matrix(0.010850694444444444,0,0,0.010850694444444444,73.79557291666666,0)" xlink:href="#Y"/><use transform="matrix(0.010850694444444444,0,0,0.010850694444444444,82.83420138888889,0)" xlink:href="#Z"/><use transform="matrix(0.010850694444444444,0,0,0.010850694444444444,98.11197916666666,0)" xlink:href="#aa"/><use transform="matrix(0.010850694444444444,0,0,0.010850694444444444,112.1853298611111,0)" xlink:href="#ab"/><use transform="matrix(0.010850694444444444,0,0,0.010850694444444444,134.08203125,0)" xlink:href="#X"/></g><g id="l"><use transform="matrix(0.010850694444444444,0,0,0.010850694444444444,0,0)" xlink:href="#I"/><use transform="matrix(0.010850694444444444,0,0,0.010850694444444444,12.47829861111111,0)" xlink:href="#J"/><use transform="matrix(0.010850694444444444,0,0,0.010850694444444444,17.860243055555557,0)" xlink:href="#C"/><use transform="matrix(0.010850694444444444,0,0,0.010850694444444444,31.000434027777775,0)" xlink:href="#K"/><use transform="matrix(0.010850694444444444,0,0,0.010850694444444444,50.46657986111112,0)" xlink:href="#z"/><use transform="matrix(0.010850694444444444,0,0,0.010850694444444444,63.5959201388889,0)" xlink:href="#H"/></g><path d="M180 0v-1490h270l367 940c28 72 75 218 110 339 35-117 81-264 110-339l362-940h271V0h-187c2-448-5-837 7-1287-157 497-311 829-483 1287H842C666-458 514-784 354-1284c12 438 5 843 7 1284H180" id="ac"/><g id="m"><use transform="matrix(0.010850694444444444,0,0,0.010850694444444444,0,0)" xlink:href="#ac"/><use transform="matrix(0.010850694444444444,0,0,0.010850694444444444,20.07378472222222,0)" xlink:href="#y"/><use transform="matrix(0.010850694444444444,0,0,0.010850694444444444,25.455729166666664,0)" xlink:href="#J"/><use transform="matrix(0.010850694444444444,0,0,0.010850694444444444,30.837673611111104,0)" xlink:href="#N"/><use transform="matrix(0.010850694444444444,0,0,0.010850694444444444,43.97786458333333,0)" xlink:href="#F"/><use transform="matrix(0.010850694444444444,0,0,0.010850694444444444,57.30251736111111,0)" xlink:href="#C"/><use transform="matrix(0.010850694444444444,0,0,0.010850694444444444,70.44270833333333,0)" xlink:href="#A"/><use transform="matrix(0.010850694444444444,0,0,0.010850694444444444,82.17230902777777,0)" xlink:href="#H"/></g><g id="n"><use transform="matrix(0.010850694444444444,0,0,0.010850694444444444,0,0)" xlink:href="#O"/><use transform="matrix(0.010850694444444444,0,0,0.010850694444444444,12.6953125,0)" xlink:href="#F"/><use transform="matrix(0.010850694444444444,0,0,0.010850694444444444,26.01996527777778,0)" xlink:href="#P"/><use transform="matrix(0.010850694444444444,0,0,0.010850694444444444,39.6484375,0)" xlink:href="#z"/><use transform="matrix(0.010850694444444444,0,0,0.010850694444444444,52.77777777777778,0)" xlink:href="#F"/><use transform="matrix(0.010850694444444444,0,0,0.010850694444444444,66.10243055555556,0)" xlink:href="#K"/><use transform="matrix(0.010850694444444444,0,0,0.010850694444444444,85.56857638888889,0)" xlink:href="#L"/></g><g id="o"><use transform="matrix(0.010850694444444444,0,0,0.010850694444444444,0,0)" xlink:href="#Q"/><use transform="matrix(0.010850694444444444,0,0,0.010850694444444444,14.20355902777778,0)" xlink:href="#I"/><use transform="matrix(0.010850694444444444,0,0,0.010850694444444444,26.68185763888889,0)" xlink:href="#z"/></g><path d="M180 0v-1490h190v644h782v-644h190V0h-190v-678H370V0H180" id="ad"/><g id="p"><use transform="matrix(0.010850694444444444,0,0,0.010850694444444444,0,0)" xlink:href="#ad"/><use transform="matrix(0.010850694444444444,0,0,0.010850694444444444,16.514756944444443,0)" xlink:href="#F"/><use transform="matrix(0.010850694444444444,0,0,0.010850694444444444,29.83940972222222,0)" xlink:href="#C"/><use transform="matrix(0.010850694444444444,0,0,0.010850694444444444,42.97960069444444,0)" xlink:href="#B"/><use transform="matrix(0.010850694444444444,0,0,0.010850694444444444,50.03255208333333,0)" xlink:href="#H"/><use transform="matrix(0.010850694444444444,0,0,0.010850694444444444,62.98828125,0)" xlink:href="#z"/></g><path d="M180 0v-1490h224l606 953c40 63 108 177 176 312-27-437-7-821-13-1265h190V0h-226C860-448 622-778 356-1262c27 476 11 792 15 1262H180" id="ae"/><g id="q"><use transform="matrix(0.010850694444444444,0,0,0.010850694444444444,0,0)" xlink:href="#ae"/><use transform="matrix(0.010850694444444444,0,0,0.010850694444444444,16.74262152777778,0)" xlink:href="#H"/><use transform="matrix(0.010850694444444444,0,0,0.010850694444444444,29.698350694444443,0)" xlink:href="#J"/><use transform="matrix(0.010850694444444444,0,0,0.010850694444444444,35.080295138888886,0)" xlink:href="#A"/><use transform="matrix(0.010850694444444444,0,0,0.010850694444444444,46.80989583333333,0)" xlink:href="#F"/><use transform="matrix(0.010850694444444444,0,0,0.010850694444444444,60.13454861111111,0)" xlink:href="#z"/></g><g id="r"><use transform="matrix(0.010850694444444444,0,0,0.010850694444444444,0,0)" xlink:href="#ac"/><use transform="matrix(0.010850694444444444,0,0,0.010850694444444444,20.07378472222222,0)" xlink:href="#C"/><use transform="matrix(0.010850694444444444,0,0,0.010850694444444444,33.21397569444444,0)" xlink:href="#z"/><use transform="matrix(0.010850694444444444,0,0,0.010850694444444444,46.34331597222222,0)" xlink:href="#B"/><use transform="matrix(0.010850694444444444,0,0,0.010850694444444444,53.61328125,0)" xlink:href="#S"/></g><path d="M657 26c-323 0-524-166-541-416h195c15 169 171 246 346 246 202 0 356-106 356-265 5-203-294-238-475-293-239-73-380-191-380-389 0-252 224-419 512-419 294 0 499 171 508 396H992c-17-145-151-228-328-228-193 0-321 102-321 242 0 156 175 211 284 241l149 41c160 44 422 134 422 412 0 244-197 432-541 432" id="af"/><path d="M370-1490V0H180v-1490h190" id="ag"/><path d="M57 0l534-763-501-727h220c122 187 296 416 391 605 94-191 272-419 396-605h215L811-770 1340 0h-219C986-204 811-426 699-640 588-430 407-202 273 0H57" id="ah"/><g id="s"><use transform="matrix(0.010850694444444444,0,0,0.010850694444444444,0,0)" xlink:href="#P"/><use transform="matrix(0.010850694444444444,0,0,0.010850694444444444,13.628472222222221,0)" xlink:href="#E"/><use transform="matrix(0.010850694444444444,0,0,0.010850694444444444,21.994357638888886,0)" xlink:href="#C"/><use transform="matrix(0.010850694444444444,0,0,0.010850694444444444,35.13454861111111,0)" xlink:href="#D"/><use transform="matrix(0.010850694444444444,0,0,0.010850694444444444,48.74131944444444,0)" xlink:href="#W"/><use transform="matrix(0.010850694444444444,0,0,0.010850694444444444,63.444010416666664,0)" xlink:href="#X"/><use transform="matrix(0.010850694444444444,0,0,0.010850694444444444,73.79557291666666,0)" xlink:href="#Y"/><use transform="matrix(0.010850694444444444,0,0,0.010850694444444444,82.83420138888889,0)" xlink:href="#aa"/><use transform="matrix(0.010850694444444444,0,0,0.010850694444444444,98.16623263888889,0)" xlink:href="#af"/><use transform="matrix(0.010850694444444444,0,0,0.010850694444444444,112.42404513888889,0)" xlink:href="#ag"/><use transform="matrix(0.010850694444444444,0,0,0.010850694444444444,118.39192708333333,0)" xlink:href="#ah"/><use transform="matrix(0.010850694444444444,0,0,0.010850694444444444,133.55034722222223,0)" xlink:href="#X"/></g><g id="t"><use transform="matrix(0.010850694444444444,0,0,0.010850694444444444,0,0)" xlink:href="#z"/><use transform="matrix(0.010850694444444444,0,0,0.010850694444444444,13.129340277777777,0)" xlink:href="#F"/><use transform="matrix(0.010850694444444444,0,0,0.010850694444444444,26.453993055555554,0)" xlink:href="#K"/><use transform="matrix(0.010850694444444444,0,0,0.010850694444444444,45.920138888888886,0)" xlink:href="#L"/></g><g id="u"><use transform="matrix(0.010850694444444444,0,0,0.010850694444444444,0,0)" xlink:href="#ac"/><use transform="matrix(0.010850694444444444,0,0,0.010850694444444444,20.07378472222222,0)" xlink:href="#I"/><use transform="matrix(0.010850694444444444,0,0,0.010850694444444444,32.55208333333333,0)" xlink:href="#E"/><use transform="matrix(0.010850694444444444,0,0,0.010850694444444444,41.265190972222214,0)" xlink:href="#B"/><use transform="matrix(0.010850694444444444,0,0,0.010850694444444444,48.535156249999986,0)" xlink:href="#y"/><use transform="matrix(0.010850694444444444,0,0,0.010850694444444444,53.917100694444436,0)" xlink:href="#z"/></g><path d="M180 0v-1490h510c348 0 508 209 508 474 0 266-160 477-507 477H370V0H180zm190-706h312c236 0 327-133 327-310 0-176-91-307-329-307H370v617" id="ai"/><g id="v"><use transform="matrix(0.010850694444444444,0,0,0.010850694444444444,0,0)" xlink:href="#ai"/><use transform="matrix(0.010850694444444444,0,0,0.010850694444444444,14.192708333333332,0)" xlink:href="#E"/><use transform="matrix(0.010850694444444444,0,0,0.010850694444444444,22.90581597222222,0)" xlink:href="#y"/><use transform="matrix(0.010850694444444444,0,0,0.010850694444444444,28.287760416666664,0)" xlink:href="#z"/><use transform="matrix(0.010850694444444444,0,0,0.010850694444444444,41.41710069444444,0)" xlink:href="#O"/><use transform="matrix(0.010850694444444444,0,0,0.010850694444444444,54.11241319444444,0)" xlink:href="#H"/></g><g id="w"><use transform="matrix(0.010850694444444444,0,0,0.010850694444444444,0,0)" xlink:href="#U"/><use transform="matrix(0.010850694444444444,0,0,0.010850694444444444,14.192708333333332,0)" xlink:href="#I"/><use transform="matrix(0.010850694444444444,0,0,0.010850694444444444,26.671006944444443,0)" xlink:href="#J"/><use transform="matrix(0.010850694444444444,0,0,0.010850694444444444,32.052951388888886,0)" xlink:href="#D"/><use transform="matrix(0.010850694444444444,0,0,0.010850694444444444,45.65972222222221,0)" xlink:href="#N"/></g><g id="x"><use transform="matrix(0.010850694444444444,0,0,0.010850694444444444,0,0)" xlink:href="#ab"/><use transform="matrix(0.010850694444444444,0,0,0.010850694444444444,21.89670138888889,0)" xlink:href="#y"/><use transform="matrix(0.010850694444444444,0,0,0.010850694444444444,27.278645833333336,0)" xlink:href="#P"/><use transform="matrix(0.010850694444444444,0,0,0.010850694444444444,40.90711805555556,0)" xlink:href="#P"/><use transform="matrix(0.010850694444444444,0,0,0.010850694444444444,54.53559027777778,0)" xlink:href="#C"/><use transform="matrix(0.010850694444444444,0,0,0.010850694444444444,67.67578125,0)" xlink:href="#K"/></g></defs></g></svg>